<?xml version="1.0" encoding="UTF-8"?>
<!DOCTYPE svg PUBLIC "-//W3C//DTD SVG 1.1//EN" "http://www.w3.org/Graphics/SVG/1.1/DTD/svg11.dtd">
<!-- Creator: CorelDRAW -->
<svg xmlns="http://www.w3.org/2000/svg" xml:space="preserve" width="436.284mm" height="190.526mm" version="1.1" style="shape-rendering:geometricPrecision; text-rendering:geometricPrecision; image-rendering:optimizeQuality; fill-rule:evenodd; clip-rule:evenodd"
viewBox="0 0 43628.36 19052.64"
 xmlns:xlink="http://www.w3.org/1999/xlink"
 xmlns:xodm="http://www.corel.com/coreldraw/odm/2003">
 <defs>
  <style type="text/css">
   <![CDATA[
    .str0 {stroke:#2957BA;stroke-width:132.29;stroke-miterlimit:22.9256}
    .fil0 {fill:#2957BA}
    .fil2 {fill:#DADADB}
    .fil1 {fill:white}
    .fil3 {fill:#2957BA;fill-rule:nonzero}
    .fil4 {fill:white;fill-rule:nonzero}
   ]]>
  </style>
 </defs>
 <g id="Capa_x0020_1">
  <metadata id="CorelCorpID_0Corel-Layer"/>
  <path class="fil0" d="M5027.09 0l33574.18 0c2764.96,0 5027.09,2262.17 5027.09,5027.08l0 8998.48c0,2764.92 -2262.13,5027.08 -5027.09,5027.08l-33574.18 0c-2764.96,0 -5027.09,-2262.16 -5027.09,-5027.08l0 -8998.48c0,-2764.91 2262.13,-5027.08 5027.09,-5027.08z"/>
  <path class="fil1" d="M15467.93 2950.48c-993.13,-660.8 -2462.91,-1240.17 -3661.35,-1496.94 -2824.44,-605.14 -5730.56,-233 -8057.99,1369.64 -2229.49,1535.21 -3307.82,4367.78 -2360.11,7012.41 679.93,1897.34 1778.16,3140.58 3401.2,4320.72 361.04,262.51 1347.9,798.38 1789.47,1061.29 -732.36,919.02 -1464.71,1838.04 -2197.07,2757.06l-280.21 325.72c1481.39,534.62 4835.28,-2340.9 5263.37,-2271.97 2133.16,343.5 4354.68,257.32 6339.39,-694.92 1609.17,-772.07 3258.42,-2238.81 3734.32,-4149.16 268.48,-1077.74 305.05,-2068.31 20.14,-3151.57 -598.33,-2274.75 -2076.65,-3808.43 -3991.16,-5082.28z"/>
  <path class="fil2" d="M4382.08 17974.66l-280.21 325.72c1485.69,527.82 4836.32,-2340.74 5263.37,-2271.97 2133.16,343.5 4354.68,257.32 6339.39,-694.92 1609.17,-772.07 3258.42,-2238.81 3734.32,-4149.16 268.48,-1077.74 305.05,-2068.31 20.14,-3151.57 -141.15,-623.11 -642.41,-1848.34 -1282.75,-2639.36 1096.97,1889.63 1794.51,3514.65 1036.53,5772.74 -1306.48,3892.08 -6115.64,5331.28 -9806.93,4586.18 -678.97,-137.05 -1696.26,922.22 -2308.54,1295.88 -462.2,282.08 -2280.65,1159.49 -2715.32,926.46z"/>
  <polygon class="fil3" points="3853.89,12315.89 3853.89,6609.53 1723.04,6609.53 1723.04,5851.09 6842.51,5851.09 6842.51,6609.53 4711.65,6609.53 4711.65,12315.89 "/>
  <polygon class="fil3" points="6767.36,12315.89 6767.36,5851.09 8849.32,5851.09 10289.1,10260.28 11742.74,5851.09 13800.65,5851.09 13800.65,12315.89 12194.49,12315.89 12352.66,7886.55 10812.59,12315.89 9768.6,12315.89 8230.62,7876.37 8390.84,12315.89 "/>
  <path class="fil3 str0" d="M13776.01 9608.68c71.54,-1184.31 424.58,-2145.9 1060.53,-2883.28 566.24,-654.6 1227.12,-982.66 1984.05,-982.66 635.05,0 1150.81,255.82 1547.27,767.47 398.06,510.14 568.75,1221.93 513.75,2132.36 -44.18,731.35 -224.22,1394.99 -540.03,1989.4 -314.4,595.92 -695.04,1042.86 -1139,1342.32 -445.46,299.46 -903,449.95 -1372.52,449.95 -409.31,0 -771.45,-108.35 -1086.32,-326.55 -314.97,-216.7 -562.92,-546.26 -745.45,-987.18 -182.54,-440.92 -256.1,-942.03 -222.28,-1501.83zm692.69 42.14c-37.82,626.01 88.5,1125.62 377.36,1500.32 288.96,373.2 647.88,559.8 1075.26,559.8 323.54,0 649.75,-118.88 977.11,-356.64 327.47,-239.27 614.95,-613.98 860.97,-1124.12 246.01,-510.14 386.48,-1066.93 422.85,-1668.87 39.45,-653.1 -81.45,-1167.76 -364.29,-1542.46 -281.34,-374.71 -638.66,-562.81 -1072.06,-562.81 -499.61,0 -965.88,245.29 -1395.9,737.37 -525.43,601.94 -818.75,1422.07 -881.3,2457.41z"/>
  <path class="fil4" d="M25758.27 6293.51l613.97 0 0 3935.16c0,790.05 -194.12,1355.87 -580.87,1698.97 -386.74,343.1 -893.87,514.66 -1519.89,514.66 -698.24,0 -1214.4,-176.07 -1549.98,-529.71 -335.58,-353.64 -502.62,-914.94 -502.62,-1683.92l0 -3935.16 758.44 0 0 3938.17c0,468.01 54.18,799.08 164.03,990.19 108.35,191.12 273.88,332.57 495.09,424.37 222.72,91.79 454.46,136.94 695.24,136.94 466.5,0 821.64,-121.9 1063.92,-367.19 242.28,-243.78 362.67,-639.55 362.67,-1184.31l0 -3938.17zm3990.83 5552.87l0 550.77c-245.29,30.1 -457.47,45.15 -636.54,45.15 -863.78,0 -1295.67,-449.95 -1295.67,-1351.35l0 -2684.64 -785.53 0 0 -541.74 785.53 0 27.08 -1121.11 659.13 -61.7 0 1182.81 993.19 0 0 541.74 -993.19 0 0 2797.5c0,458.98 236.26,687.71 710.28,687.71 158.01,0 337.08,-15.04 535.72,-45.14zm1477.76 -5552.87l0 767.47 -749.41 0 0 -767.47 749.41 0zm-36.12 1571.06l0 4451.32 -686.2 0 0 -4451.32 686.2 0zm2072.17 4451.32l-686.2 0 0 -6022.38 686.2 0 0 6022.38zm2112.8 -6022.38l0 767.47 -749.41 0 0 -767.47 749.41 0zm-36.12 1571.06l0 4451.32 -686.2 0 0 -4451.32 686.2 0zm3408.47 3981.81l0 550.77c-245.29,30.1 -457.47,45.15 -636.54,45.15 -863.78,0 -1295.67,-449.95 -1295.67,-1351.35l0 -2684.64 -785.53 0 0 -541.74 785.53 0 27.08 -1121.11 659.13 -61.7 0 1182.81 993.19 0 0 541.74 -993.19 0 0 2797.5c0,458.98 236.26,687.71 710.28,687.71 158.01,0 337.08,-15.04 535.72,-45.14zm3810.27 -3981.81l-1789.26 4975c-258.83,716.31 -671.16,1074.46 -1238.49,1074.46 -180.58,0 -377.71,-30.1 -595.91,-90.29l0 -541.74c179.07,42.13 332.57,63.2 461.98,63.2 221.21,0 404.81,-63.2 552.28,-191.11 148.98,-127.91 299.46,-434.9 449.95,-919.46l-1546.98 -4370.06 707.28 0 1197.85 3354.29 1206.88 -3354.29 594.42 0z"/>
 </g>
</svg>
