<svg xmlns="http://www.w3.org/2000/svg" xml:space="preserve" width="1648.947" height="720.098" style="shape-rendering:geometricPrecision;text-rendering:geometricPrecision;image-rendering:optimizeQuality;fill-rule:evenodd;clip-rule:evenodd" viewBox="0 0 43628.36 19052.64"><defs><style>.fil3{fill:#2957ba;fill-rule:nonzero}</style></defs><g id="Capa_x0020_1"><path d="M5027.09 0h33574.18c2764.96 0 5027.09 2262.17 5027.09 5027.08v8998.48c0 2764.92-2262.13 5027.08-5027.09 5027.08H5027.09C2262.13 19052.64 0 16790.48 0 14025.56V5027.08C0 2262.17 2262.13 0 5027.09 0z" style="fill:#2957ba"/><path d="M15467.93 2950.48c-993.13-660.8-2462.91-1240.17-3661.35-1496.94-2824.44-605.14-5730.56-233-8057.99 1369.64C1519.1 4358.39 440.77 7190.96 1388.48 9835.59c679.93 1897.34 1778.16 3140.58 3401.2 4320.72 361.04 262.51 1347.9 798.38 1789.47 1061.29-732.36 919.02-1464.71 1838.04-2197.07 2757.06l-280.21 325.72c1481.39 534.62 4835.28-2340.9 5263.37-2271.97 2133.16 343.5 4354.68 257.32 6339.39-694.92 1609.17-772.07 3258.42-2238.81 3734.32-4149.16 268.48-1077.74 305.05-2068.31 20.14-3151.57-598.33-2274.75-2076.65-3808.43-3991.16-5082.28z" style="fill:#fff"/><path d="m4382.08 17974.66-280.21 325.72c1485.69 527.82 4836.32-2340.74 5263.37-2271.97 2133.16 343.5 4354.68 257.32 6339.39-694.92 1609.17-772.07 3258.42-2238.81 3734.32-4149.16 268.48-1077.74 305.05-2068.31 20.14-3151.57-141.15-623.11-642.41-1848.34-1282.75-2639.36 1096.97 1889.63 1794.51 3514.65 1036.53 5772.74-1306.48 3892.08-6115.64 5331.28-9806.93 4586.18-678.97-137.05-1696.26 922.22-2308.54 1295.88-462.2 282.08-2280.65 1159.49-2715.32 926.46z" style="fill:#dadadb"/><path d="M3853.89 12315.89V6609.53H1723.04v-758.44h5119.47v758.44H4711.65v5706.36z" class="fil3"/><path d="M6767.36 12315.89v-6464.8h2081.96l1439.78 4409.19 1453.64-4409.19h2057.91v6464.8h-1606.16l158.17-4429.34-1540.07 4429.34H9768.6L8230.62 7876.37l160.22 4439.52z" class="fil3"/><path d="M13776.01 9608.68c71.54-1184.31 424.58-2145.9 1060.53-2883.28 566.24-654.6 1227.12-982.66 1984.05-982.66 635.05 0 1150.81 255.82 1547.27 767.47 398.06 510.14 568.75 1221.93 513.75 2132.36-44.18 731.35-224.22 1394.99-540.03 1989.4-314.4 595.92-695.04 1042.86-1139 1342.32-445.46 299.46-903 449.95-1372.52 449.95-409.31 0-771.45-108.35-1086.32-326.55-314.97-216.7-562.92-546.26-745.45-987.18-182.54-440.92-256.1-942.03-222.28-1501.83zm692.69 42.14c-37.82 626.01 88.5 1125.62 377.36 1500.32 288.96 373.2 647.88 559.8 1075.26 559.8 323.54 0 649.75-118.88 977.11-356.64 327.47-239.27 614.95-613.98 860.97-1124.12 246.01-510.14 386.48-1066.93 422.85-1668.87 39.45-653.1-81.45-1167.76-364.29-1542.46-281.34-374.71-638.66-562.81-1072.06-562.81-499.61 0-965.88 245.29-1395.9 737.37-525.43 601.94-818.75 1422.07-881.3 2457.41z" class="fil3" style="stroke:#2957ba;stroke-width:132.29;stroke-miterlimit:22.9256"/><path d="M25758.27 6293.51h613.97v3935.16c0 790.05-194.12 1355.87-580.87 1698.97-386.74 343.1-893.87 514.66-1519.89 514.66-698.24 0-1214.4-176.07-1549.98-529.71-335.58-353.64-502.62-914.94-502.62-1683.92V6293.51h758.44v3938.17c0 468.01 54.18 799.08 164.03 990.19 108.35 191.12 273.88 332.57 495.09 424.37 222.72 91.79 454.46 136.94 695.24 136.94 466.5 0 821.64-121.9 1063.92-367.19 242.28-243.78 362.67-639.55 362.67-1184.31V6293.51zm3990.83 5552.87v550.77c-245.29 30.1-457.47 45.15-636.54 45.15-863.78 0-1295.67-449.95-1295.67-1351.35V8406.31h-785.53v-541.74h785.53l27.08-1121.11 659.13-61.7v1182.81h993.19v541.74h-993.19v2797.5c0 458.98 236.26 687.71 710.28 687.71 158.01 0 337.08-15.04 535.72-45.14zm1477.76-5552.87v767.47h-749.41v-767.47h749.41zm-36.12 1571.06v4451.32h-686.2V7864.57h686.2zm2072.17 4451.32h-686.2V6293.51h686.2v6022.38zm2112.8-6022.38v767.47h-749.41v-767.47h749.41zm-36.12 1571.06v4451.32h-686.2V7864.57h686.2zm3408.47 3981.81v550.77c-245.29 30.1-457.47 45.15-636.54 45.15-863.78 0-1295.67-449.95-1295.67-1351.35V8406.31h-785.53v-541.74h785.53l27.08-1121.11 659.13-61.7v1182.81h993.19v541.74h-993.19v2797.5c0 458.98 236.26 687.71 710.28 687.71 158.01 0 337.08-15.04 535.72-45.14zm3810.27-3981.81-1789.26 4975c-258.83 716.31-671.16 1074.46-1238.49 1074.46-180.58 0-377.71-30.1-595.91-90.29V13282c179.07 42.13 332.57 63.2 461.98 63.2 221.21 0 404.81-63.2 552.28-191.11 148.98-127.91 299.46-434.9 449.95-919.46L38851.9 7864.57h707.28l1197.85 3354.29 1206.88-3354.29h594.42z" style="fill:#fff;fill-rule:nonzero"/></g></svg>